<svg xmlns="http://www.w3.org/2000/svg" width="16" height="16">
  <rect style="fill: #18003d;" width="16" height="16" />
  <path style="fill: #0080ff;" d="m3.5854,8.709c.0112.4404.2314,1.2773,1.6743,1.2773.7822,0,1.6528-.1865,1.6528-1.0244,0-.6162-.5952-.7822-1.4321-.9795l-.8486-.1992c-1.2778-.2969-2.5117-.584-2.5117-2.3242,0-.8813.4736-2.4351,3.0405-2.4351,2.4238,0,3.0737,1.5864,3.085,2.5562h-1.5864c-.0439-.3525-.1763-1.1899-1.6196-1.1899-.6279,0-1.377.2314-1.377.9478,0,.6167.5068.749.8374.8262l1.9277.4736c1.0796.2646,2.0713.7051,2.0713,2.126,0,2.3799-2.4238,2.5889-3.1177,2.5889-2.8867,0-3.3823-1.6631-3.3823-2.6436h1.5864Z" />
  <path style="fill: #0080ff;" d="m11.1348,9.877h3.0742v1.2666h-5.0684v-1.2012l3.0078-3.4258h-2.7988v-1.2339h4.749v1.2661l-2.9639,3.3281Z" />
  <rect style="fill: #0080ff;" x="2" y="13" width="12" height="1" />
</svg>
